{"accessors" : [{"bufferView" : 0, "byteOffset" : 0, "componentType" : 5123, "count" : 59118, "type" : "SCALAR", "max" : [13017], "min" : [0]}, {"bufferView" : 1, "byteOffset" : 0, "componentType" : 5126, "count" : 13018, "type" : "VEC3", "max" : [22.14889907836914, 77.94329833984375, 44.35639953613281], "min" : [-22.14889907836914, 0.010400000028312206, -38.40079879760742], "name" : "POSITION"}, {"bufferView" : 1, "byteOffset" : 12, "componentType" : 5126, "count" : 13018, "type" : "VEC2", "max" : [0.9994999766349792, 0.9994999766349792], "min" : [0.0005000000237487257, 0.009299993515014648], "name" : "TEXCOORD_0"}, {"bufferView" : 1, "byteOffset" : 20, "componentType" : 5126, "count" : 13018, "type" : "VEC3", "max" : [1.0000044107437134, 1.0000044107437134, 1.0000044107437134], "min" : [-1.0000044107437134, -1.0000044107437134, -1.0000044107437134], "name" : "NORMAL"}], "asset" : {"generator" : "Aspose.3D 24.6.0", "version" : "2.0"}, "buffers" : [{"uri" : "buffer.bin", "byteLength" : 534820}], "bufferViews" : [{"buffer" : 0, "byteOffset" : 0, "byteLength" : 118236, "target" : 34963}, {"buffer" : 0, "byteOffset" : 118240, "byteLength" : 416576, "byteStride" : 32, "target" : 34962}], "meshes" : [{"primitives" : [{"attributes" : {"POSITION" : 1, "TEXCOORD_0" : 2, "NORMAL" : 3}, "indices" : 0, "mode" : 4}], "name" : ""}], "nodes" : [{"mesh" : 0, "name" : "Shopping_Cart"}], "scene" : 0, "scenes" : [{"nodes" : [0]}]}